<svg xmlns="http://www.w3.org/2000/svg" viewBox="0 0 26 167" fill="none"><rect x="7" y="5" width="12" height="151" rx="6" fill="#EEEEEE"></rect><g filter="url(#filter0_f_115_1118)"><rect x="6" y="6" width="14" height="14" rx="7" fill="#292C27"></rect></g><rect x="6.5" y="4.5" width="13" height="13" rx="6.5" fill="#292C27" stroke="white" stroke-width="3"></rect><rect x="11" y="25" width="4" height="4" rx="2" fill="#C4C4C4"></rect><rect x="11" y="37" width="4" height="4" rx="2" fill="#C4C4C4"></rect><rect x="11" y="49" width="4" height="4" rx="2" fill="#C4C4C4"></rect><rect x="11" y="61" width="4" height="4" rx="2" fill="#C4C4C4"></rect><rect x="11" y="73" width="4" height="4" rx="2" fill="#C4C4C4"></rect><rect x="11" y="85" width="4" height="4" rx="2" fill="#C4C4C4"></rect><rect x="11" y="97" width="4" height="4" rx="2" fill="#30AF5B"></rect><rect x="11" y="109" width="4" height="4" rx="2" fill="#30AF5B"></rect><rect x="11" y="121" width="4" height="4" rx="2" fill="#30AF5B"></rect><rect x="11" y="133" width="4" height="4" rx="2" fill="#30AF5B"></rect><g filter="url(#filter1_f_115_1118)"><rect x="6" y="147" width="14" height="14" rx="7" fill="#30AF5B"></rect></g><rect x="6.5" y="145.5" width="13" height="13" rx="6.5" fill="#30AF5B" stroke="white" stroke-width="3"></rect><defs><filter id="filter0_f_115_1118" x="0" y="0" width="26" height="26" filterUnits="userSpaceOnUse" color-interpolation-filters="sRGB"><feFlood flood-opacity="0" result="BackgroundImageFix"></feFlood><feBlend mode="normal" in="SourceGraphic" in2="BackgroundImageFix" result="shape"></feBlend><feGaussianBlur stdDeviation="3" result="effect1_foregroundBlur_115_1118"></feGaussianBlur></filter><filter id="filter1_f_115_1118" x="0" y="141" width="26" height="26" filterUnits="userSpaceOnUse" color-interpolation-filters="sRGB"><feFlood flood-opacity="0" result="BackgroundImageFix"></feFlood><feBlend mode="normal" in="SourceGraphic" in2="BackgroundImageFix" result="shape"></feBlend><feGaussianBlur stdDeviation="3" result="effect1_foregroundBlur_115_1118"></feGaussianBlur></filter></defs></svg>